<?xml version="1.0" encoding="UTF-8"?>
<svg width="1424px" height="1078px" viewBox="0 0 1424 1078" version="1.1" xmlns="http://www.w3.org/2000/svg">
    <!-- Generator: Sketch 51 (57462) - http://www.bohemiancoding.com/sketch -->
    <title>Background</title>
    <desc>Created with Sketch.</desc>
    <defs>
        <linearGradient x1="-4.43169158%" y1="36.5793092%" x2="119.324269%" y2="81.3397449%" id="linearGradient-1">
            <stop stop-color="#FFFFFF" offset="0%"></stop>
            <stop stop-color="#FFFFFF" stop-opacity="0.879444067" offset="52.1285077%"></stop>
            <stop stop-color="#CAE2FC" stop-opacity="0" offset="100%"></stop>
        </linearGradient>
    </defs>
    <g id="Page-1" stroke="none" stroke-width="1" fill="none" fill-rule="evenodd">
        <g id="V2_01" transform="translate(-1.000000, -57.000000)">
            <g id="Background" transform="translate(1.000000, 57.000000)">
                <g id="iso-tri" transform="translate(237.000000, 131.000000)">
                    <polygon id="Triangle" fill="#215FCA" points="1026.05916 769.677282 1075.48398 856.920805 976.634347 856.920805"></polygon>
                    <polygon id="Triangle" fill="#5CC1CB" transform="translate(1089.816085, 790.784241) rotate(60.000000) translate(-1089.816085, -790.784241) " points="1089.81609 747.16248 1139.2409 834.406002 1040.39127 834.406002"></polygon>
                    <polygon id="Triangle" fill="#3C7CB6" transform="translate(1141.217893, 881.453031) rotate(60.000000) translate(-1141.217893, -881.453031) " points="1141.21789 837.831269 1190.64271 925.074792 1091.79308 925.074792"></polygon>
                    <polygon id="Triangle" fill="#2977FF" points="1128.86278 769.677282 1178.28759 856.920805 1079.43796 856.920805"></polygon>
                    <polygon id="Triangle" fill="#4D5C87" points="1077.46097 860.346072 1126.88578 947.589595 1028.03615 947.589595"></polygon>
                    <polygon id="Triangle" fill="#215FCA" points="1026.05916 588.339703 1075.48398 675.583226 976.634347 675.583226"></polygon>
                    <polygon id="Triangle" fill="#5CC1CB" transform="translate(1089.816085, 609.446661) rotate(60.000000) translate(-1089.816085, -609.446661) " points="1089.81609 565.8249 1139.2409 653.068423 1040.39127 653.068423"></polygon>
                    <polygon id="Triangle" fill="#3C7CB6" transform="translate(1141.217893, 700.115451) rotate(60.000000) translate(-1141.217893, -700.115451) " points="1141.21789 656.49369 1190.64271 743.737213 1091.79308 743.737213"></polygon>
                    <polygon id="Triangle" fill="#3DA7D5" transform="translate(1038.414278, 700.115451) rotate(60.000000) translate(-1038.414278, -700.115451) " points="1038.41428 656.49369 1087.83909 743.737213 988.989463 743.737213"></polygon>
                    <polygon id="Triangle" fill="#2977FF" points="1128.86278 588.339703 1178.28759 675.583226 1079.43796 675.583226"></polygon>
                    <polygon id="Triangle" fill="#4D5C87" points="1077.46097 679.008493 1126.88578 766.252015 1028.03615 766.252015"></polygon>
                    <polygon id="Triangle" fill="#215FCA" points="871.853739 679.008493 921.278554 766.252015 822.428924 766.252015"></polygon>
                    <polygon id="Triangle" fill="#5CC1CB" transform="translate(935.610662, 700.115451) rotate(60.000000) translate(-935.610662, -700.115451) " points="935.610662 656.49369 985.035477 743.737213 886.185847 743.737213"></polygon>
                    <polygon id="Triangle" fill="#5CC1CB" transform="translate(935.610662, 881.453031) rotate(60.000000) translate(-935.610662, -881.453031) " points="935.610662 837.831269 985.035477 925.074792 886.185847 925.074792"></polygon>
                    <polygon id="Triangle" fill="#3DA7D5" transform="translate(884.208854, 790.784241) rotate(60.000000) translate(-884.208854, -790.784241) " points="884.208854 747.16248 933.63367 834.406002 834.784039 834.406002"></polygon>
                    <polygon id="Triangle" fill="#4D5C87" points="923.255546 769.677282 972.680362 856.920805 873.830731 856.920805"></polygon>
                    <polygon id="Triangle" fill="#215FCA" points="871.853739 497.670913 921.278554 584.914436 822.428924 584.914436"></polygon>
                    <polygon id="Triangle" fill="#5CC1CB" transform="translate(935.610662, 518.777872) rotate(60.000000) translate(-935.610662, -518.777872) " points="935.610662 475.15611 985.035477 562.399633 886.185847 562.399633"></polygon>
                    <polygon id="Triangle" fill="#2977FF" points="974.657354 497.670913 1024.08217 584.914436 925.232539 584.914436"></polygon>
                    <polygon id="Triangle" fill="#4D5C87" points="923.255546 588.339703 972.680362 675.583226 873.830731 675.583226"></polygon>
                    <polygon id="Triangle" fill="#2977FF" points="973.668858 860.346072 1023.09367 947.589595 924.244043 947.589595"></polygon>
                    <polygon id="Triangle" fill="#215FCA" points="716.659819 769.677282 766.084634 856.920805 667.235004 856.920805"></polygon>
                    <polygon id="Triangle" fill="#5CC1CB" transform="translate(780.416743, 790.784241) rotate(60.000000) translate(-780.416743, -790.784241) " points="780.416743 747.16248 829.841558 834.406002 730.991928 834.406002"></polygon>
                    <polygon id="Triangle" fill="#3DA7D5" transform="translate(729.014935, 881.453031) rotate(60.000000) translate(-729.014935, -881.453031) " points="729.014935 837.831269 778.43975 925.074792 679.59012 925.074792"></polygon>
                    <polygon id="Triangle" fill="#5CC1CB" transform="translate(780.416743, 609.446661) rotate(60.000000) translate(-780.416743, -609.446661) " points="780.416743 565.8249 829.841558 653.068423 730.991928 653.068423"></polygon>
                    <polygon id="Triangle" fill="#3DA7D5" transform="translate(729.014935, 700.115451) rotate(60.000000) translate(-729.014935, -700.115451) " points="729.014935 656.49369 778.43975 743.737213 679.59012 743.737213"></polygon>
                    <polygon id="Triangle" fill="#2977FF" points="819.463435 588.339703 868.88825 675.583226 770.03862 675.583226"></polygon>
                    <polygon id="Triangle" fill="#4D5C87" points="768.061627 679.008493 817.486442 766.252015 718.636812 766.252015"></polygon>
                    <polygon id="Triangle" fill="#215FCA" points="716.659819 407.002123 766.084634 494.245646 667.235004 494.245646"></polygon>
                    <polygon id="Triangle" fill="#3DA7D5" transform="translate(729.014935, 518.777872) rotate(60.000000) translate(-729.014935, -518.777872) " points="729.014935 475.15611 778.43975 562.399633 679.59012 562.399633"></polygon>
                    <polygon id="Triangle" fill="#2977FF" points="819.463435 407.002123 868.88825 494.245646 770.03862 494.245646"></polygon>
                    <polygon id="Triangle" fill="#4D5C87" points="768.061627 497.670913 817.486442 584.914436 718.636812 584.914436"></polygon>
                    <polygon id="Triangle" fill="#215FCA" points="562.454396 497.670913 611.879211 584.914436 513.029581 584.914436"></polygon>
                    <polygon id="Triangle" fill="#2977FF" points="665.258012 497.670913 714.682827 584.914436 615.833196 584.914436"></polygon>
                    <polygon id="Triangle" fill="#4D5C87" points="613.856204 588.339703 663.281019 675.583226 564.431389 675.583226"></polygon>
                    <polygon id="Triangle" fill="#215FCA" points="562.454396 316.333333 611.879211 403.576856 513.029581 403.576856"></polygon>
                    <polygon id="Triangle" fill="#5CC1CB" transform="translate(626.211320, 337.440292) rotate(60.000000) translate(-626.211320, -337.440292) " points="626.21132 293.818531 675.636135 381.062053 576.786504 381.062053"></polygon>
                    <polygon id="Triangle" fill="#3DA7D5" transform="translate(574.809512, 428.109082) rotate(60.000000) translate(-574.809512, -428.109082) " points="574.809512 384.48732 624.234327 471.730843 525.384697 471.730843"></polygon>
                    <polygon id="Triangle" fill="#2977FF" points="665.258012 316.333333 714.682827 403.576856 615.833196 403.576856"></polygon>
                    <polygon id="Triangle" fill="#4D5C87" points="613.856204 407.002123 663.281019 494.245646 564.431389 494.245646"></polygon>
                    <polygon id="Triangle" fill="#215FCA" points="561.4659 860.346072 610.890715 947.589595 512.041085 947.589595"></polygon>
                    <polygon id="Triangle" fill="#215FCA" points="772.015612 860.346072 821.440427 947.589595 722.590797 947.589595"></polygon>
                    <polygon id="Triangle" fill="#5CC1CB" transform="translate(625.222823, 881.453031) rotate(60.000000) translate(-625.222823, -881.453031) " points="625.222823 837.831269 674.647638 925.074792 575.798008 925.074792"></polygon>
                    <polygon id="Triangle" fill="#3C7CB6" transform="translate(1141.217893, 155.095281) rotate(60.000000) translate(-1141.217893, -155.095281) " points="1141.21789 111.47352 1190.64271 198.717043 1091.79308 198.717043"></polygon>
                    <polygon id="Triangle" fill="#2977FF" points="1128.86278 43.3195329 1178.28759 130.563056 1079.43796 130.563056"></polygon>
                    <polygon id="Triangle" fill="#215FCA" points="1025.07067 405.994692 1074.49548 493.238215 975.64585 493.238215"></polygon>
                    <polygon id="Triangle" fill="#3C7CB6" transform="translate(1140.229397, 517.770441) rotate(60.000000) translate(-1140.229397, -517.770441) " points="1140.2294 474.148679 1189.65421 561.392202 1090.80458 561.392202"></polygon>
                    <polygon id="Triangle" fill="#3DA7D5" transform="translate(1037.425781, 517.770441) rotate(60.000000) translate(-1037.425781, -517.770441) " points="1037.42578 474.148679 1086.8506 561.392202 988.000966 561.392202"></polygon>
                    <polygon id="Triangle" fill="#2977FF" points="664.269515 860.346072 713.69433 947.589595 614.8447 947.589595"></polygon>
                    <polygon id="Triangle" fill="#5CC1CB" transform="translate(625.222823, 700.115451) rotate(60.000000) translate(-625.222823, -700.115451) " points="625.222823 656.49369 674.647638 743.737213 575.798008 743.737213"></polygon>
                    <polygon id="Triangle" fill="#3C7CB6" transform="translate(676.624631, 790.784241) rotate(60.000000) translate(-676.624631, -790.784241) " points="676.624631 747.16248 726.049446 834.406002 627.199816 834.406002"></polygon>
                    <polygon id="Triangle" fill="#3DA7D5" transform="translate(573.821016, 790.784241) rotate(60.000000) translate(-573.821016, -790.784241) " points="573.821016 747.16248 623.245831 834.406002 524.3962 834.406002"></polygon>
                    <polygon id="Triangle" fill="#215FCA" points="407.260477 769.677282 456.685292 856.920805 357.835661 856.920805"></polygon>
                    <polygon id="Triangle" fill="#3C7CB6" transform="translate(522.419208, 881.453031) rotate(60.000000) translate(-522.419208, -881.453031) " points="522.419208 837.831269 571.844023 925.074792 472.994393 925.074792"></polygon>
                    <polygon id="Triangle" fill="#3DA7D5" transform="translate(419.615592, 881.453031) rotate(60.000000) translate(-419.615592, -881.453031) " points="419.615592 837.831269 469.040407 925.074792 370.190777 925.074792"></polygon>
                    <polygon id="Triangle" fill="#2977FF" points="510.064092 769.677282 559.488907 856.920805 460.639277 856.920805"></polygon>
                    <polygon id="Triangle" fill="#5CC1CB" transform="translate(471.017400, 609.446661) rotate(60.000000) translate(-471.017400, -609.446661) " points="471.0174 565.8249 520.442215 653.068423 421.592585 653.068423"></polygon>
                    <polygon id="Triangle" fill="#3C7CB6" transform="translate(522.419208, 700.115451) rotate(60.000000) translate(-522.419208, -700.115451) " points="522.419208 656.49369 571.844023 743.737213 472.994393 743.737213"></polygon>
                    <polygon id="Triangle" fill="#3DA7D5" transform="translate(419.615592, 700.115451) rotate(60.000000) translate(-419.615592, -700.115451) " points="419.615592 656.49369 469.040407 743.737213 370.190777 743.737213"></polygon>
                    <polygon id="Triangle" fill="#2977FF" points="510.064092 588.339703 559.488907 675.583226 460.639277 675.583226"></polygon>
                    <polygon id="Triangle" fill="#4D5C87" points="458.662284 679.008493 508.087099 766.252015 409.237469 766.252015"></polygon>
                    <polygon id="Triangle" fill="#3C7CB6" transform="translate(1141.217893, 517.770441) rotate(60.000000) translate(-1141.217893, -517.770441) " points="1141.21789 474.148679 1190.64271 561.392202 1091.79308 561.392202"></polygon>
                    <polygon id="Triangle" fill="#3DA7D5" transform="translate(1038.414278, 517.770441) rotate(60.000000) translate(-1038.414278, -517.770441) " points="1038.41428 474.148679 1087.83909 561.392202 988.989463 561.392202"></polygon>
                    <polygon id="Triangle" fill="#2977FF" points="1128.86278 405.994692 1178.28759 493.238215 1079.43796 493.238215"></polygon>
                    <path d="M1075.48398,311.900635 L976.634347,311.900635 L1075.48398,311.900635 Z" id="Triangle" fill="#215FCA"></path>
                    <polygon id="Triangle" fill="#5CC1CB" transform="translate(1089.816085, 245.764071) rotate(60.000000) translate(-1089.816085, -245.764071) " points="1089.81609 202.14231 1139.2409 289.385833 1040.39127 289.385833"></polygon>
                    <polygon id="Triangle" fill="#3C7CB6" transform="translate(1141.217893, 336.432861) rotate(60.000000) translate(-1141.217893, -336.432861) " points="1141.21789 292.8111 1190.64271 380.054622 1091.79308 380.054622"></polygon>
                    <polygon id="Triangle" fill="#3DA7D5" transform="translate(1038.414278, 336.432861) rotate(60.000000) translate(-1038.414278, -336.432861) " points="1038.41428 292.8111 1087.83909 380.054622 988.989463 380.054622"></polygon>
                    <polygon id="Triangle" fill="#2977FF" points="1128.86278 224.657113 1178.28759 311.900635 1079.43796 311.900635"></polygon>
                    <polygon id="Triangle" fill="#4D5C87" points="1077.46097 315.325902 1126.88578 402.569425 1028.03615 402.569425"></polygon>
                    <polygon id="Triangle" fill="#215FCA" points="871.853739 315.325902 921.278554 402.569425 822.428924 402.569425"></polygon>
                    <polygon id="Triangle" fill="#3C7CB6" transform="translate(987.012470, 427.101651) rotate(60.000000) translate(-987.012470, -427.101651) " points="987.01247 383.479889 1036.43729 470.723412 937.587655 470.723412"></polygon>
                    <polygon id="Triangle" fill="#3DA7D5" transform="translate(884.208854, 427.101651) rotate(60.000000) translate(-884.208854, -427.101651) " points="884.208854 383.479889 933.63367 470.723412 834.784039 470.723412"></polygon>
                    <polygon id="Triangle" fill="#2977FF" points="974.657354 315.325902 1024.08217 402.569425 925.232539 402.569425"></polygon>
                    <path d="M972.680362,493.238215 L873.830731,493.238215 L972.680362,493.238215 Z" id="Triangle" fill="#4D5C87"></path>
                    <polygon id="Triangle" fill="#215FCA" points="871.853739 133.988323 921.278554 221.231846 822.428924 221.231846"></polygon>
                    <polygon id="Triangle" fill="#5CC1CB" transform="translate(935.610662, 155.095281) rotate(60.000000) translate(-935.610662, -155.095281) " points="935.610662 111.47352 985.035477 198.717043 886.185847 198.717043"></polygon>
                    <polygon id="Triangle" fill="#3DA7D5" transform="translate(884.208854, 245.764071) rotate(60.000000) translate(-884.208854, -245.764071) " points="884.208854 202.14231 933.63367 289.385833 834.784039 289.385833"></polygon>
                    <polygon id="Triangle" fill="#2977FF" points="974.657354 133.988323 1024.08217 221.231846 925.232539 221.231846"></polygon>
                    <polygon id="Triangle" fill="#215FCA" points="718.636812 225.664544 768.061627 312.908066 669.211997 312.908066"></polygon>
                    <polygon id="Triangle" fill="#5CC1CB" transform="translate(782.393735, 246.771502) rotate(60.000000) translate(-782.393735, -246.771502) " points="782.393735 203.149741 831.81855 290.393264 732.96892 290.393264"></polygon>
                    <polygon id="Triangle" fill="#3C7CB6" transform="translate(833.795543, 337.440292) rotate(60.000000) translate(-833.795543, -337.440292) " points="833.795543 293.818531 883.220358 381.062053 784.370728 381.062053"></polygon>
                    <polygon id="Triangle" fill="#4D5C87" points="770.03862 316.333333 819.463435 403.576856 720.613804 403.576856"></polygon>
                    <polygon id="Triangle" fill="#215FCA" points="718.636812 44.3269639 768.061627 131.570487 669.211997 131.570487"></polygon>
                    <polygon id="Triangle" fill="#3C7CB6" transform="translate(833.795543, 156.102712) rotate(60.000000) translate(-833.795543, -156.102712) " points="833.795543 112.480951 883.220358 199.724474 784.370728 199.724474"></polygon>
                    <polygon id="Triangle" fill="#215FCA" points="564.431389 134.995754 613.856204 222.239277 515.006574 222.239277"></polygon>
                    <polygon id="Triangle" fill="#5CC1CB" transform="translate(628.188312, 156.102712) rotate(60.000000) translate(-628.188312, -156.102712) " points="628.188312 112.480951 677.613127 199.724474 578.763497 199.724474"></polygon>
                    <polygon id="Triangle" fill="#3C7CB6" transform="translate(679.590120, 246.771502) rotate(60.000000) translate(-679.590120, -246.771502) " points="679.59012 203.149741 729.014935 290.393264 630.165305 290.393264"></polygon>
                    <polygon id="Triangle" fill="#3DA7D5" transform="translate(576.786504, 246.771502) rotate(60.000000) translate(-576.786504, -246.771502) " points="576.786504 203.149741 626.21132 290.393264 527.361689 290.393264"></polygon>
                    <polygon id="Triangle" fill="#2977FF" points="667.235004 134.995754 716.659819 222.239277 617.810189 222.239277"></polygon>
                    <polygon id="Triangle" fill="#3DA7D5" transform="translate(215.985354, 881.453031) rotate(60.000000) translate(-215.985354, -881.453031) " points="215.985354 837.831269 265.410169 925.074792 166.560539 925.074792"></polygon>
                    <polygon id="Triangle" fill="#2977FF" points="306.433854 769.677282 355.858669 856.920805 257.009039 856.920805"></polygon>
                    <polygon id="Triangle" fill="#4D5C87" points="255.032046 860.346072 304.456861 947.589595 205.607231 947.589595"></polygon>
                    <polygon id="Triangle" fill="#5CC1CB" transform="translate(267.387162, 609.446661) rotate(60.000000) translate(-267.387162, -609.446661) " points="267.387162 565.8249 316.811977 653.068423 217.962347 653.068423"></polygon>
                    <polygon id="Triangle" fill="#3C7CB6" transform="translate(318.788970, 700.115451) rotate(60.000000) translate(-318.788970, -700.115451) " points="318.78897 656.49369 368.213785 743.737213 269.364154 743.737213"></polygon>
                    <polygon id="Triangle" fill="#3DA7D5" transform="translate(215.985354, 700.115451) rotate(60.000000) translate(-215.985354, -700.115451) " points="215.985354 656.49369 265.410169 743.737213 166.560539 743.737213"></polygon>
                    <polygon id="Triangle" fill="#215FCA" points="49.4248151 679.008493 98.8496302 766.252015 0 766.252015"></polygon>
                    <polygon id="Triangle" fill="#5CC1CB" transform="translate(113.181739, 700.115451) rotate(60.000000) translate(-113.181739, -700.115451) " points="113.181739 656.49369 162.606554 743.737213 63.7569235 743.737213"></polygon>
                    <polygon id="Triangle" fill="#4D5C87" points="100.826623 769.677282 150.251438 856.920805 51.4018077 856.920805"></polygon>
                    <polygon id="Triangle" fill="#215FCA" points="49.4248151 497.670913 98.8496302 584.914436 0 584.914436"></polygon>
                    <polygon id="Triangle" fill="#5CC1CB" transform="translate(113.181739, 518.777872) rotate(60.000000) translate(-113.181739, -518.777872) " points="113.181739 475.15611 162.606554 562.399633 63.7569235 562.399633"></polygon>
                    <polygon id="Triangle" fill="#3C7CB6" transform="translate(164.583546, 609.446661) rotate(60.000000) translate(-164.583546, -609.446661) " points="164.583546 565.8249 214.008361 653.068423 115.158731 653.068423"></polygon>
                    <polygon id="Triangle" fill="#3DA7D5" transform="translate(576.786504, 65.433923) rotate(60.000000) translate(-576.786504, -65.433923) " points="576.786504 21.8121611 626.21132 109.055684 527.361689 109.055684"></polygon>
                    <polygon id="Triangle" fill="#3DA7D5" transform="translate(419.615592, 336.432861) rotate(60.000000) translate(-419.615592, -336.432861) " points="419.615592 292.8111 469.040407 380.054622 370.190777 380.054622"></polygon>
                    <polygon id="Triangle" fill="#2977FF" points="510.064092 224.657113 559.488907 311.900635 460.639277 311.900635"></polygon>
                    <polygon id="Triangle" fill="#4D5C87" points="458.662284 315.325902 508.087099 402.569425 409.237469 402.569425"></polygon>
                    <polygon id="Triangle" fill="#3C7CB6" transform="translate(369.202281, 428.109082) rotate(60.000000) translate(-369.202281, -428.109082) " points="369.202281 384.48732 418.627096 471.730843 319.777466 471.730843"></polygon>
                    <polygon id="Triangle" fill="#3DA7D5" transform="translate(266.398665, 428.109082) rotate(60.000000) translate(-266.398665, -428.109082) " points="266.398665 384.48732 315.823481 471.730843 216.97385 471.730843"></polygon>
                    <polygon id="Triangle" fill="#2977FF" points="356.847165 316.333333 406.27198 403.576856 307.42235 403.576856"></polygon>
                    <polygon id="Triangle" fill="#5CC1CB" transform="translate(317.800473, 156.102712) rotate(60.000000) translate(-317.800473, -156.102712) " points="317.800473 112.480951 367.225288 199.724474 268.375658 199.724474"></polygon>
                    <polygon id="Triangle" fill="#3C7CB6" transform="translate(369.202281, 246.771502) rotate(60.000000) translate(-369.202281, -246.771502) " points="369.202281 203.149741 418.627096 290.393264 319.777466 290.393264"></polygon>
                    <polygon id="Triangle" fill="#2977FF" points="356.847165 134.995754 406.27198 222.239277 307.42235 222.239277"></polygon>
                    <polygon id="Triangle" fill="#3DA7D5" transform="translate(112.193242, 337.440292) rotate(60.000000) translate(-112.193242, -337.440292) " points="112.193242 293.818531 161.618057 381.062053 62.7684272 381.062053"></polygon>
                </g>
                <rect id="Rectangle-3" fill="url(#linearGradient-1)" x="0" y="0" width="1424" height="1080"></rect>
            </g>
        </g>
    </g>
</svg>